<?xml version="1.0" standalone="no"?>
<!DOCTYPE svg PUBLIC "-//W3C//DTD SVG 20010904//EN"
 "http://www.w3.org/TR/2001/REC-SVG-20010904/DTD/svg10.dtd">
<svg version="1.0" xmlns="http://www.w3.org/2000/svg"
 width="225.000000pt" height="225.000000pt" viewBox="0 0 225.000000 225.000000"
 preserveAspectRatio="xMidYMid meet">

<g transform="translate(0.000000,225.000000) scale(0.100000,-0.100000)"
fill="#000000" stroke="none">
<path d="M197 1786 c-4 -9 -13 -16 -21 -16 -15 0 -26 -29 -26 -73 l0 -27 863
2 862 3 -3 25 c-2 14 -8 35 -14 47 l-11 23 -699 2 c-659 3 -698 2 -698 -14 0
-10 -4 -18 -10 -18 -5 0 -10 8 -11 18 0 12 -2 13 -6 3 -11 -27 -45 -53 -79
-58 -30 -5 -39 -1 -68 31 -19 20 -39 36 -45 36 -5 0 -14 7 -19 16 -8 15 -10
15 -15 0z"/>
<path d="M1814 1564 c-57 -60 -59 -69 -22 -98 159 -124 268 -206 275 -206 14
0 73 82 73 101 0 10 -3 25 -6 34 -8 21 -253 205 -273 205 -7 0 -29 -16 -47
-36z"/>
<path d="M950 1395 l0 -25 283 2 282 3 3 23 3 22 -285 0 -286 0 0 -25z"/>
<path d="M550 1395 c-10 -12 -15 -13 -20 -4 -5 7 -17 -2 -34 -27 -51 -76 -26
-171 53 -204 65 -26 140 26 148 104 5 38 1 53 -21 86 -24 36 -47 57 -30 28 4
-7 -3 -3 -15 10 -25 26 -63 29 -81 7z"/>
<path d="M950 1235 l0 -25 294 0 294 0 16 25 16 25 -310 0 -310 0 0 -25z"/>
<path d="M440 1132 c-51 -40 -69 -64 -70 -94 0 -54 15 -58 206 -58 102 0 183
4 195 10 23 13 25 61 4 94 -15 23 -87 76 -102 76 -5 0 -24 -25 -43 -55 -19
-30 -37 -55 -40 -54 -3 0 -25 24 -49 54 -24 30 -48 55 -55 55 -6 0 -27 -13
-46 -28z"/>
<path d="M952 1088 l3 -23 230 0 c183 0 234 3 248 14 9 8 17 18 17 23 0 4
-113 8 -251 8 l-250 0 3 -22z"/>
<path d="M352 768 l3 -23 478 -3 477 -2 0 25 0 25 -481 0 -480 0 3 -22z"/>
<path d="M1291 634 c-7 -48 -10 -88 -8 -90 8 -8 167 69 167 81 0 15 -35 47
-80 74 -60 36 -66 31 -79 -65z"/>
<path d="M357 563 c-4 -3 -7 -15 -7 -25 0 -17 20 -18 444 -18 257 0 447 4 450
9 4 5 3 16 0 25 -5 14 -53 16 -443 16 -241 0 -441 -3 -444 -7z"/>
</g>
</svg>
